<?xml version="1.0" encoding="utf-8"?>
<!-- Generator: Adobe Illustrator 25.4.1, SVG Export Plug-In . SVG Version: 6.00 Build 0)  -->
<svg version="1.1" id="Layer_1" xmlns="http://www.w3.org/2000/svg" xmlns:xlink="http://www.w3.org/1999/xlink" x="0px" y="0px"
	 viewBox="0 0 150 150" style="enable-background:new 0 0 150 150;" xml:space="preserve">
<style type="text/css">
	.st0{display:none;}
	.st1{display:inline;}
	.st2{fill:#FFFFFF;}
	.st3{fill:#0C3856;}
	.st4{fill:none;stroke:#0C3856;stroke-width:4.1619;stroke-linecap:round;stroke-miterlimit:10;}
	.st5{fill:#0C3856;stroke:#FFFFFF;stroke-width:0.4993;stroke-miterlimit:10;}
	.st6{fill:#FFFFFF;stroke:#0C3856;stroke-width:4.1619;stroke-linecap:round;stroke-miterlimit:10;}
</style>
<g id="yq1ug0.tif" class="st0">
	<g class="st1">
		<path class="st2" d="M51.74-107.22c150.46,0,300.91,0,451.37,0c0,120.36,0,240.73,0,361.09c-150.46,0-300.91,0-451.37,0
			C51.74,133.51,51.74,13.15,51.74-107.22z M431.78,93.4c0.16-0.71,0.48-1.43,0.45-2.14c-0.33-10.49-2.76-20.54-6.53-30.28
			c-1.11-2.86-2.5-5.6-0.54-8.64c0.32-0.5,0.28-1.23,0.4-1.85c1.75-8.92,0.9-17.59-2.83-25.89c-4.78-10.64-12.72-18.57-22.03-25.27
			c-0.65-0.47-1.53-0.61-2.3-0.9c-0.34-0.47-0.58-1.08-1.03-1.38c-1.64-1.07-3.35-2.04-5.03-3.04c-6.91-4.12-14.17-7.5-21.7-10.29
			c-2.85-1.05-5.48-2.17-7.23-4.88c-0.95-1.48-2.29-2.76-3.62-3.94c-8.76-7.79-19.09-12.62-30.25-15.83
			c-12.52-3.6-25.34-4.95-38.31-4.94c-5.95,0-11.91,0.12-17.84,0.55c-6.03,0.43-12.04,1.2-18.03,2.03
			c-4.38,0.61-8.7,1.56-13.05,2.36c-0.52,0.03-1.05,0-1.55,0.11c-9.97,2.21-19.85,4.71-29.36,8.54c-8.18,3.29-16.01,7.17-22.9,12.72
			c-6.84,5.51-12.65,11.84-14.92,20.69c-0.12,0.48-0.58,0.97-1.02,1.25c-1.86,1.16-3.79,2.2-5.63,3.39
			c-0.44,0.28-0.61,0.97-0.9,1.47c-0.73,0.16-1.6,0.13-2.18,0.52c-6.19,4.14-12.1,8.63-17.55,13.74
			c-7.29,6.83-13.69,14.31-18.26,23.26c-4.84,9.46-7.01,19.43-5.35,29.98c1.69,10.74,6.49,20.17,13.41,28.47
			c3.65,4.37,7.64,8.46,11.63,12.53c1.45,1.48,3.34,2.53,5.03,3.78c0.23,0.31,0.41,0.7,0.71,0.92c5.06,3.79,10.56,6.82,16.45,9.07
			c14.37,5.51,29.26,6.1,44.3,4.18c10.37-1.33,20.43-4.12,30.18-7.91c2.44-0.95,4.83-2.04,6.97-2.96c1.8,4.2,3.5,8.28,5.32,12.31
			c0.42,0.93,1.28,1.65,1.94,2.47c0.39,0.92,0.62,1.95,1.18,2.75c2.92,4.19,6.32,7.91,10.48,10.96c7.22,5.3,15.39,7.23,24.15,6.88
			c5.9-0.23,11.63-1.59,17.17-3.66c0.91-0.34,1.53-0.36,1.74,0.83c1.11,6.6,3.33,12.84,6.64,18.64c3.92,6.9,9.13,12.52,16.4,15.77
			c0.51-1.21,1.08-2.34,1.44-3.53c0.18-0.59-0.01-1.29-0.04-1.95c-0.67,0.17-1.43,0.18-1.97,0.53c-0.79,0.52-1.42,1.28-2.53,2.32
			c-0.07-0.97-0.32-1.6-0.1-1.88c0.74-0.94,1.54-1.89,2.5-2.6c1.36-0.99,2.6-0.35,3.74,0.64c1.13,0.98,1.11,2.03,0.4,3.24
			c-0.4,0.69-0.78,1.43-0.96,2.2c-0.1,0.42,0.09,1.14,0.41,1.35c0.26,0.18,0.98-0.08,1.33-0.35c0.59-0.45,0.99-1.16,1.59-1.57
			c0.42-0.28,1.06-0.24,1.6-0.35c-0.1,0.53-0.04,1.19-0.34,1.56c-0.59,0.74-1.38,1.32-2.22,2.08c0.65,0.22,1.07,0.39,1.5,0.49
			c0.84,0.18,1.7,0.35,2.55,0.46c6.31,0.83,12.54,0.37,18.73-1.08c10.59-2.49,19.85-7.36,27.54-15.1
			c7.22-7.27,12.21-15.86,15.02-25.72c0.24-0.84,0.82-1.65,1.43-2.3c3.02-3.24,6.16-6.38,9.14-9.66c0.86-0.94,1.34-2.22,2-3.35
			c0.42-0.35,0.96-0.62,1.25-1.06c7.67-11.84,11.78-24.77,11.87-38.93C432.26,94.64,431.95,94.02,431.78,93.4z"/>
		<path d="M242.31-40.92c4.35-0.8,8.68-1.75,13.05-2.36c5.99-0.83,12-1.6,18.03-2.03c5.93-0.43,11.89-0.54,17.84-0.55
			c12.97-0.01,25.79,1.34,38.31,4.94c11.16,3.21,21.49,8.04,30.25,15.83c1.33,1.18,2.67,2.46,3.62,3.94
			c1.75,2.72,4.38,3.83,7.23,4.88c7.53,2.79,14.79,6.17,21.7,10.29c1.68,1,3.39,1.97,5.03,3.04c0.45,0.3,0.69,0.91,1.03,1.38
			c-2.62,2.7-5.25,5.4-7.87,8.11c-1.98-1.28-3.94-2.61-5.95-3.85c-8.23-5.09-16.71-9.72-26.5-10.92c-8.05-0.99-13.8,0.52-17.15,8.76
			c-2.03,4.98-2.32,9.93,1.85,13.97c2.16,2.09,4.87,3.67,7.48,5.23c4.1,2.45,8.41,4.55,12.48,7.04c3.21,1.96,4.87,5.88,3.87,9.06
			c-0.97,3.11-3.3,5.18-6.22,6.73c1.3-5.69-2.79-11.75-8.32-12.33c-0.27,0.65-0.55,1.34-0.84,2.02c-0.96,2.28-1.89,4.58-2.91,6.84
			c-0.72,1.6-2.57,2.42-3.99,1.66c-2.35-1.27-4.61-2.12-6.94,0c0.19-0.48,0.37-0.96,0.56-1.44c2.79-7.23,1.31-14.22-4.46-19.39
			c-5.58-5-6.97-11.03-5.1-18.03c0.57-2.14,1.38-4.21,2.15-6.53c-3.56,3.66-7.72,5.92-12.38,7.33c-6.09,1.84-12.33,1.75-18.55,1.24
			c-5.27-0.43-10.35-1.78-14.84-4.75c-2.45-1.62-4.79-3.41-6.11-6.17c0.79-0.79,1.58-1.58,2.37-2.37c0.21,0.09,0.44,0.13,0.62,0.27
			c4.37,3.36,9.37,4.93,14.83,4.96c7.29,0.04,14.13-2.05,20.68-5.04c6.86-3.14,13.59-6.56,20.86-8.75c2.52-0.76,4.94-1.94,7.25-3.21
			c2.27-1.24,2.36-3.2,0.07-4.33c-3.33-1.65-6.8-3.26-10.39-4.07c-6.72-1.51-13.55-2.68-20.39-3.53
			c-7.71-0.95-15.47-1.64-23.23-1.99c-7.37-0.33-14.78-0.3-22.16-0.02c-5.98,0.22-11.93,1.05-17.89,1.57
			c-0.59,0.05-1.21-0.17-1.81-0.26C247.09-36.15,244.7-38.54,242.31-40.92z"/>
		<path d="M419.14,135.24c-0.66,1.13-1.14,2.41-2,3.35c-2.98,3.28-6.12,6.42-9.14,9.66c-0.61,0.65-1.19,1.46-1.43,2.3
			c-2.81,9.86-7.81,18.45-15.02,25.72c-7.68,7.74-16.95,12.61-27.54,15.1c-6.19,1.46-12.42,1.91-18.73,1.08
			c-0.86-0.11-1.71-0.28-2.55-0.46c-0.43-0.09-0.85-0.27-1.5-0.49c0.84-0.76,1.63-1.34,2.22-2.08c0.3-0.37,0.24-1.03,0.34-1.56
			c-0.54,0.11-1.18,0.07-1.6,0.35c-0.61,0.41-1,1.12-1.59,1.57c-0.36,0.27-1.08,0.53-1.33,0.35c-0.31-0.22-0.5-0.93-0.41-1.35
			c0.18-0.77,0.55-1.51,0.96-2.2c0.71-1.21,0.73-2.26-0.4-3.24c-1.14-0.99-2.38-1.63-3.74-0.64c-0.96,0.7-1.76,1.65-2.5,2.6
			c-0.22,0.28,0.03,0.91,0.1,1.88c1.11-1.05,1.74-1.81,2.53-2.32c0.54-0.35,1.31-0.37,1.97-0.53c0.02,0.65,0.22,1.36,0.04,1.95
			c-0.36,1.19-0.93,2.31-1.44,3.53c-7.27-3.25-12.48-8.87-16.4-15.77c-3.3-5.81-5.53-12.04-6.64-18.64c-0.2-1.2-0.82-1.17-1.74-0.83
			c-5.54,2.07-11.27,3.43-17.17,3.66c-8.76,0.34-16.92-1.58-24.15-6.88c-4.16-3.05-7.56-6.77-10.48-10.96
			c-0.56-0.8-0.8-1.83-1.18-2.75c2.27-2.23,4.53-4.46,6.8-6.69c0.19,0.27,0.46,0.52,0.55,0.82c2.06,6.62,6.66,10.81,12.92,13.27
			c5.82,2.29,11.94,2.84,18.17,2.91c4.97,0.06,9.41-1.23,13.63-3.73c3.02-1.79,6.09-3.54,9.24-5.1c5.33-2.63,11.11-3.53,16.96-3.62
			c4.32-0.07,8.68,0.32,12.72,2.09c6.39,2.81,9.23,8.79,7.84,16.65c-0.04-0.56-0.05-0.84-0.08-1.12c-0.72-5.41-3.06-8.17-8.21-9.42
			c-3.6-0.88-7.26-0.77-10.82,0.13c-4.97,1.26-8.38,4.32-9.59,9.43c-1.25,5.25-0.67,10.42,1.02,15.5c0.95,2.86,2.4,5.33,5.02,7
			c1.49,0.95,2.91,2.02,4.2,2.92c-0.06,0.83-0.12,1.58-0.18,2.32c0.15,0.08,0.29,0.16,0.44,0.24c1.2-1.46,2.52-2.12,4.19-0.71
			c-0.23,0.18-0.55,0.3-0.63,0.52c-0.2,0.52-0.29,1.09-0.42,1.64c0.52-0.14,1.09-0.19,1.55-0.44c0.44-0.24,0.73-0.93,1.15-0.99
			c0.7-0.1,1.52-0.01,2.13,0.31c0.2,0.1,0.09,1.29-0.22,1.75c-0.57,0.85-1.44,1.49-2.09,2.3c-0.18,0.23-0.19,0.81-0.02,1.04
			c0.16,0.21,0.84,0.33,0.99,0.18c1.27-1.26,3.05-2.39,3.55-3.93c0.62-1.92,1.64-1.85,3.04-1.78c0.46,0.02,0.93,0.01,1.38-0.06
			c11.2-1.82,21.37-6.13,30.4-12.97c3.68-2.79,6.55-6.38,7.87-10.92c1.86-6.39,0.15-12.18-3.21-17.66
			c-0.43-0.69-0.59-1.55-0.88-2.33c2.12-2.11,4.25-4.23,6.37-6.34c0.27,0.2,0.6,0.35,0.79,0.61c1.3,1.83,2.64,3.64,3.84,5.54
			c0.78,1.25,1.78,1.68,3.19,1.51c3.11-0.38,5.63-1.91,7.9-3.95c1.44-1.3,2.8-2.68,4.2-4.03
			C415.93,132.07,417.54,133.66,419.14,135.24z"/>
		<path d="M152.76,119.52c-1.69-1.25-3.58-2.3-5.03-3.78c-3.99-4.07-7.98-8.16-11.63-12.53c-6.92-8.3-11.72-17.73-13.41-28.47
			c-1.66-10.55,0.52-20.52,5.35-29.98c4.58-8.95,10.98-16.44,18.26-23.26c5.45-5.1,11.36-9.59,17.55-13.74
			c0.58-0.39,1.44-0.35,2.17-0.52c2.38,2.36,4.76,4.73,7.14,7.1c-0.34,0.28-0.64,0.68-1.03,0.82c-4.63,1.64-8.69,4.23-12.38,7.43
			c-8.37,7.27-15.17,15.81-20.25,25.65c-4.6,8.9-6.8,18.3-4.49,28.26c1.55,6.68,4.28,12.6,11.36,15.47
			c7.21,2.92,13.8,1.67,18.99-4.13c2.97-3.32,5.06-7.16,6.45-11.35c1.95-5.9,3.57-11.91,5.64-17.77c2.37-6.72,6.1-12.65,11.56-17.35
			c6.46-5.55,14.07-7.94,22.48-8.01c1.15-0.01,2.3,0.17,3.45,0.29c1.07,0.11,2.14,0.25,3.21,0.38c-5.59,1.37-11,2.92-16.14,5.35
			c-16.94,8-22.17,23.94-18.56,40.27c0.26,1.15,0.84,1.47,2.06,1.47c3.33,0.02,6.7-0.02,9.97,0.51c7.39,1.2,12.74,5.07,15.73,12.25
			c1.04,2.49,3.1,4.73,5.15,6.59c3.1,2.81,7.15,3.76,11.24,3.87c2.96,0.08,5.94-0.42,8.76-0.65c-0.24,0.13-0.64,0.47-1.1,0.59
			c-3.54,0.99-7.05,2.17-10.65,2.85c-4.78,0.91-9.09-0.45-12.49-3.98c-1.75-1.81-3.2-3.92-4.75-5.91c-1.8-2.3-3.13-4.99-5.9-6.44
			c-6.22-3.26-12.73-2.47-19.06-0.92c-3.32,0.81-6.33,2.96-9.43,4.59c-5.34,2.81-10.89,5-16.85,6.02c-2.58,0.44-5.21,0.64-8.27,1
			c1.48,1.7,2.67,3.3,4.1,4.65c2.47,2.33,5.1,4.5,7.66,6.74C157.34,115.1,155.05,117.31,152.76,119.52z"/>
		<path d="M390.54,6.55c2.63-2.7,5.25-5.41,7.87-8.11c0.77,0.3,1.65,0.44,2.3,0.9c9.31,6.7,17.25,14.63,22.03,25.27
			c3.73,8.31,4.58,16.97,2.83,25.89c-0.12,0.62-0.08,1.35-0.4,1.85c-1.96,3.04-0.57,5.77,0.54,8.64c3.77,9.74,6.19,19.79,6.53,30.28
			c0.02,0.71-0.3,1.42-0.45,2.13c-2.2,2.27-4.41,4.54-6.62,6.81c-0.01-0.86-0.1-1.74-0.02-2.59c0.52-5.42,0.52-10.81-0.39-16.21
			c-2.05-12.16-8.95-19.9-20.8-23.29c-7.85-2.25-15.89-2.9-23.99-2.67c-6.01,0.17-11.75,1.64-16.92,4.91
			c-7.25,4.58-12.62,11.09-17.95,17.61c-3.9,4.77-7.52,9.8-11.63,14.39c-5.48,6.12-12.2,9.75-20.8,8.85
			c-4-0.42-9.78-2.76-11.58-4.67c2.46,0.5,5.3,1.51,8.17,1.59c9.74,0.28,16.68-4.84,22.07-12.4c2.04-2.86,3.69-5.98,5.58-8.95
			c0.29-0.46,0.94-1.05,1.36-1c2.07,0.25,3.55-0.69,4.9-2.05c3.91-3.93,7.95-7.74,11.72-11.8c2.54-2.74,6.11-4.67,7.25-8.62
			c0.07-0.24,0.55-0.37,0.85-0.52c10.87-5.17,22.29-6.66,34.21-5.52c4.85,0.46,9.79,0.47,14.66,0.19c4.68-0.26,6.59-2.76,6.02-6.81
			c-0.6-4.29-2.75-7.97-5.05-11.44c-4.86-7.36-11.07-13.55-17.9-19.11C393.46,8.93,392,7.74,390.54,6.55z"/>
		<path d="M173.16,14.34c-2.38-2.37-4.76-4.74-7.14-7.1c0.3-0.5,0.47-1.19,0.91-1.47c1.84-1.19,3.78-2.23,5.63-3.39
			c0.44-0.27,0.89-0.77,1.02-1.25c2.28-8.85,8.08-15.17,14.92-20.69c6.89-5.55,14.72-9.44,22.9-12.72
			c9.51-3.82,19.39-6.32,29.36-8.54c0.5-0.11,1.03-0.08,1.55-0.11c2.39,2.38,4.78,4.77,7.17,7.15c-0.36,0.23-0.7,0.61-1.08,0.67
			c-11.39,1.79-22.42,4.85-32.96,9.51c-6.57,2.9-12.75,6.48-18.11,11.33c-3.91,3.53-7.24,7.5-8.42,12.8
			c-1.04,4.68,1.23,10.41,7.03,10.83c2.14,0.15,4.43-0.01,6.49-0.6c4.59-1.32,9.12-2.88,13.59-4.57c10.08-3.82,20.04-7.9,30.72-9.87
			c8.42-1.55,16.74-1.58,24.96,0.98c0.6,0.19,1.06,0.81,1.58,1.23c-2.14,2.1-4.28,4.19-6.42,6.29c-0.51-0.06-1.04-0.04-1.52-0.2
			c-5.71-1.8-11.49-1.64-17.29-0.62c-6.67,1.18-12.73,3.98-18.62,7.2c-10.5,5.73-21.63,8.9-33.68,8.11
			c-5.04-0.33-9.95-1.42-14.43-3.81c-1.67-0.89-3.3-1.22-5.14-1.08C175.18,14.5,174.17,14.37,173.16,14.34z"/>
		<path d="M152.76,119.52c2.29-2.21,4.58-4.42,6.88-6.63c0.31,0.15,0.64,0.26,0.92,0.45c6.72,4.3,14,7.32,21.77,9.05
			c9.81,2.18,19.71,2.74,29.74,1.56c8.89-1.05,17.48-3.08,25.51-7.07c8.38-4.16,15.54-9.56,18.4-19.08
			c0.08-0.25,0.31-0.46,0.47-0.69c3.69,3.68,7.37,7.37,11.06,11.05c-0.1,0.74-0.12,1.49-0.3,2.2c-1.27,5.07-2.47,10.16-2.16,15.45
			c0.1,1.71,0.26,3.42,0.39,5.12c-2.27,2.23-4.53,4.46-6.8,6.69c-0.66-0.82-1.52-1.55-1.94-2.47c-1.83-4.03-3.52-8.11-5.32-12.31
			c-2.14,0.91-4.52,2.01-6.97,2.96c-9.76,3.78-19.81,6.58-30.18,7.91c-15.04,1.92-29.94,1.33-44.3-4.18
			c-5.89-2.26-11.39-5.28-16.45-9.07C153.17,120.22,152.99,119.83,152.76,119.52z"/>
		<path d="M425.17,100.21c2.21-2.27,4.41-4.54,6.62-6.81c0.17,0.62,0.48,1.24,0.48,1.85c-0.08,14.15-4.2,27.09-11.87,38.93
			c-0.28,0.44-0.83,0.71-1.25,1.06c-1.61-1.58-3.22-3.16-4.83-4.75c0.12-0.31,0.17-0.68,0.36-0.93c4.94-6.72,7.56-14.38,9.16-22.45
			C424.28,104.81,424.72,102.51,425.17,100.21z"/>
		<path class="st2" d="M425.17,100.21c-0.45,2.3-0.88,4.59-1.34,6.89c-1.6,8.08-4.22,15.74-9.16,22.45
			c-0.19,0.26-0.24,0.62-0.36,0.93c-1.4,1.35-2.76,2.73-4.2,4.03c-2.26,2.04-4.79,3.57-7.9,3.95c-1.41,0.17-2.4-0.26-3.19-1.51
			c-1.19-1.9-2.53-3.71-3.84-5.54c-0.19-0.26-0.52-0.41-0.79-0.61c-0.07-0.27-0.06-0.6-0.21-0.81
			c-4.54-5.98-10.17-10.32-17.76-11.68c-2.09-0.38-4.23-0.59-6.29-1.1c-6.78-1.67-13.06-4.31-17.3-10.25
			c-2.65-3.72-3.59-7.85-1.29-12.01c1.21-2.18,3.19-3.94,4.66-5.69c-0.95,0.44-2.28,0.95-3.51,1.65c-5.52,3.14-8.84,7.74-8.7,14.27
			c0.15,7.25,3.35,12.61,10.43,15.1c4.01,1.41,8.09,2.68,12.19,3.79c8.07,2.19,15.5,5.31,20.41,12.59c0.18,0.26,0.64,0.33,0.98,0.48
			c0.29,0.78,0.45,1.63,0.88,2.33c3.36,5.48,5.07,11.27,3.21,17.66c-1.32,4.54-4.19,8.13-7.87,10.92
			c-9.03,6.84-19.2,11.15-30.4,12.97c-0.45,0.07-0.92,0.08-1.38,0.06c-1.4-0.06-2.41-0.14-3.04,1.78c-0.5,1.54-2.28,2.68-3.55,3.93
			c-0.15,0.15-0.83,0.03-0.99-0.18c-0.17-0.23-0.16-0.82,0.02-1.04c0.65-0.8,1.52-1.45,2.09-2.3c0.31-0.46,0.41-1.65,0.22-1.75
			c-0.61-0.32-1.43-0.41-2.13-0.31c-0.42,0.06-0.71,0.75-1.15,0.99c-0.46,0.25-1.03,0.3-1.55,0.44c0.13-0.55,0.22-1.12,0.42-1.64
			c0.08-0.22,0.4-0.34,0.63-0.52c-1.67-1.41-2.98-0.75-4.19,0.71c-0.15-0.08-0.29-0.16-0.44-0.24c0.06-0.74,0.11-1.49,0.18-2.32
			c-1.29-0.9-2.71-1.97-4.2-2.92c-2.62-1.67-4.06-4.13-5.02-7c-1.69-5.09-2.27-10.25-1.02-15.5c1.21-5.11,4.62-8.16,9.59-9.43
			c3.56-0.9,7.22-1.01,10.82-0.13c5.15,1.26,7.5,4.01,8.21,9.42c0.04,0.28,0.04,0.56,0.08,1.12c1.38-7.87-1.45-13.84-7.84-16.65
			c-4.04-1.78-8.4-2.16-12.72-2.09c-5.85,0.09-11.64,0.99-16.96,3.62c-3.15,1.56-6.21,3.31-9.24,5.1c-4.22,2.5-8.66,3.79-13.63,3.73
			c-6.23-0.07-12.34-0.62-18.17-2.91c-6.26-2.46-10.86-6.65-12.92-13.27c-0.09-0.3-0.37-0.55-0.55-0.82
			c-0.13-1.71-0.29-3.41-0.39-5.12c-0.31-5.29,0.89-10.37,2.16-15.45c0.18-0.71,0.2-1.47,0.3-2.2c0.14-0.29,0.34-0.57,0.4-0.87
			c0.89-4.82,1.97-9.61,2.58-14.46c1.01-8-1.07-14.89-8.04-19.72c-3.08-2.13-6.19-4.21-9.21-6.41c-6.05-4.42-8.8-10.44-7.44-17.8
			c1.55-8.34,6.32-14.61,13.74-18.77c1.34-0.75,2.81-1.26,4.22-1.88c-0.02-0.14-0.04-0.28-0.07-0.42
			c-4.01,0.34-8.09,0.33-12.01,1.09c-9.09,1.76-15.34,6.85-17.44,16.25c-0.96,4.28-0.9,8.61-0.25,12.91
			c0.8,5.27,2.48,10.26,6.36,14.09c2.99,2.95,6.27,5.6,9.49,8.3c2.99,2.51,6.12,5.01,6.75,9.1c0.38,2.46-0.07,5.04-0.14,7.56
			c-0.16,0.23-0.39,0.43-0.47,0.69c-2.86,9.51-10.02,14.91-18.4,19.08c-8.04,3.99-16.62,6.02-25.51,7.07
			c-10.03,1.19-19.93,0.63-29.74-1.56c-7.77-1.73-15.05-4.75-21.77-9.05c-0.29-0.18-0.62-0.3-0.92-0.45
			c-2.56-2.24-5.18-4.41-7.66-6.74c-1.43-1.35-2.62-2.95-4.1-4.65c3.06-0.36,5.68-0.56,8.27-1c5.96-1.02,11.52-3.22,16.85-6.02
			c3.1-1.63,6.11-3.78,9.43-4.59c6.33-1.54,12.84-2.33,19.06,0.92c2.76,1.45,4.1,4.14,5.9,6.44c1.56,1.99,3.01,4.1,4.75,5.91
			c3.4,3.53,7.71,4.88,12.49,3.98c3.6-0.68,7.11-1.86,10.65-2.85c0.46-0.13,0.86-0.46,1.1-0.59c-2.82,0.23-5.8,0.74-8.76,0.65
			c-4.09-0.12-8.14-1.06-11.24-3.87c-2.05-1.86-4.11-4.09-5.15-6.59c-2.99-7.18-8.34-11.05-15.73-12.25
			c-3.27-0.53-6.64-0.49-9.97-0.51c-1.23-0.01-1.81-0.32-2.06-1.47c-3.61-16.33,1.61-32.27,18.56-40.27
			c5.14-2.43,10.55-3.98,16.14-5.35c-1.07-0.13-2.14-0.27-3.21-0.38c-1.15-0.12-2.3-0.3-3.45-0.29c-8.42,0.07-16.03,2.46-22.48,8.01
			c-5.46,4.7-9.19,10.63-11.56,17.35c-2.07,5.86-3.69,11.87-5.64,17.77c-1.39,4.19-3.48,8.03-6.45,11.35
			c-5.18,5.8-11.78,7.05-18.99,4.13c-7.08-2.87-9.82-8.79-11.36-15.47c-2.31-9.96-0.11-19.36,4.49-28.26
			c5.09-9.84,11.88-18.39,20.25-25.65c3.69-3.2,7.75-5.79,12.38-7.43c0.39-0.14,0.69-0.54,1.03-0.82c1.01,0.03,2.02,0.16,3.02,0.08
			c1.84-0.14,3.47,0.19,5.14,1.08c4.49,2.4,9.4,3.48,14.43,3.81c12.05,0.79,23.18-2.37,33.68-8.11c5.89-3.21,11.95-6.02,18.62-7.2
			c5.79-1.03,11.58-1.19,17.29,0.62c0.48,0.15,1.01,0.13,1.52,0.2c0.78,0.43,1.54,0.91,2.35,1.27c7.76,3.45,12.89,9.21,14.92,17.46
			c0.7,2.84,0.58,5.88,0.82,8.64c0.01-0.02,0.18-0.31,0.24-0.61c0.72-3.55,1.71-7.07,2.06-10.65c1.03-10.62-3.26-18.41-12.44-22.4
			c-0.43-0.19-1.02,0-1.54,0.01c-0.52-0.42-0.98-1.05-1.58-1.23c-8.23-2.56-16.54-2.54-24.96-0.98
			c-10.68,1.97-20.65,6.06-30.72,9.87c-4.47,1.69-9,3.25-13.59,4.57c-2.06,0.59-4.34,0.76-6.49,0.6c-5.81-0.42-8.07-6.15-7.03-10.83
			c1.18-5.3,4.51-9.27,8.42-12.8c5.36-4.84,11.55-8.43,18.11-11.33c10.55-4.66,21.58-7.72,32.96-9.51c0.39-0.06,0.72-0.44,1.08-0.67
			c0.6,0.09,1.22,0.31,1.81,0.26c5.97-0.52,11.92-1.35,17.89-1.57c7.38-0.27,14.79-0.31,22.16,0.02c7.76,0.35,15.52,1.03,23.23,1.99
			c6.84,0.85,13.67,2.02,20.39,3.53c3.59,0.81,7.06,2.42,10.39,4.07c2.29,1.13,2.2,3.09-0.07,4.33c-2.31,1.27-4.74,2.45-7.25,3.21
			c-7.27,2.19-14,5.61-20.86,8.75c-6.54,2.99-13.38,5.08-20.68,5.04c-5.45-0.03-10.45-1.6-14.83-4.96
			c-0.17-0.13-0.41-0.18-0.62-0.27c-2.03-2.31-4.07-4.61-6.1-6.92c0.1,0.6,0.07,1.32,0.33,1.91c1.09,2.48,2.26,4.93,3.4,7.39
			c1.32,2.76,3.66,4.55,6.11,6.17c4.49,2.97,9.56,4.31,14.84,4.75c6.22,0.51,12.46,0.6,18.55-1.24c4.66-1.41,8.82-3.67,12.38-7.33
			c-0.77,2.32-1.58,4.39-2.15,6.53c-1.87,7-0.48,13.03,5.1,18.03c5.76,5.16,7.25,12.16,4.46,19.39c-0.19,0.48-0.37,0.96-0.56,1.44
			c2.34-2.13,4.59-1.28,6.94,0c1.42,0.77,3.27-0.05,3.99-1.66c1.02-2.26,1.94-4.56,2.91-6.84c0.29-0.68,0.57-1.37,0.84-2.02
			c5.53,0.58,9.62,6.64,8.32,12.33c2.92-1.56,5.25-3.62,6.22-6.73c0.99-3.18-0.66-7.09-3.87-9.06c-4.07-2.49-8.38-4.6-12.48-7.04
			c-2.61-1.56-5.32-3.13-7.48-5.23c-4.16-4.03-3.87-8.98-1.85-13.97c3.35-8.24,9.1-9.75,17.15-8.76c9.78,1.2,18.26,5.83,26.5,10.92
			c2.01,1.24,3.97,2.56,5.95,3.85c1.46,1.19,2.92,2.38,4.39,3.57c6.83,5.56,13.03,11.75,17.9,19.11c2.3,3.47,4.45,7.15,5.05,11.44
			c0.57,4.05-1.35,6.55-6.02,6.81c-4.87,0.28-9.8,0.27-14.66-0.19c-11.93-1.14-23.35,0.35-34.21,5.52
			c-0.31,0.15-0.79,0.28-0.85,0.52c-1.14,3.95-4.71,5.88-7.25,8.62c-3.76,4.06-7.81,7.87-11.72,11.8c-1.36,1.36-2.83,2.3-4.9,2.05
			c-0.41-0.05-1.07,0.54-1.36,1c-1.89,2.97-3.54,6.09-5.58,8.95c-5.39,7.56-12.32,12.67-22.07,12.4c-2.87-0.08-5.71-1.09-8.17-1.59
			c1.8,1.91,7.58,4.25,11.58,4.67c8.59,0.9,15.32-2.73,20.8-8.85c4.11-4.59,7.72-9.61,11.63-14.39c5.34-6.52,10.7-13.03,17.95-17.61
			c5.17-3.27,10.9-4.74,16.92-4.91c8.1-0.23,16.14,0.43,23.99,2.67c11.85,3.39,18.75,11.13,20.8,23.29
			c0.91,5.4,0.91,10.79,0.39,16.21C425.07,98.48,425.16,99.35,425.17,100.21z M330.34,48.21c-7.09,1.47-13.88,2.25-19.42,6.8
			c-5.21,4.29-9.03,12.67-9.55,17.83c5.1-10.52,14.15-14.69,24.72-16.66C324.71,52.11,328.25,50.77,330.34,48.21z M327.11,55.33
			c0.19,0.12,0.37,0.25,0.56,0.37c1.72-0.47,3.49-0.8,5.13-1.44c1.38-0.54,2.87-0.88,3.69-2.57c0.45-0.93,1.79-1.79,2.86-2.01
			c3.87-0.8,4.88-4.16,6.77-6.62c-1.3-0.56-2.41-0.99-3.48-1.5c-1.47-0.71-2.78-0.61-3.96,0.58c-2.29,2.31-4.6,4.61-6.89,6.92
			c-1.1,1.11-2.29,2.14-3.25,3.36C327.89,53.25,327.58,54.35,327.11,55.33z M338.69,74.1c3.29-0.23,5.14-2.83,3.9-5.24
			C341.33,70.56,340.1,72.21,338.69,74.1z M359.76,55.2c-0.14-0.19-0.27-0.38-0.41-0.57c-1.04,0.61-2.07,1.23-3.11,1.84
			c0.14,0.23,0.28,0.45,0.42,0.68C357.69,56.5,358.72,55.85,359.76,55.2z"/>
		<path d="M278.68-6.99c-1.14-2.46-2.31-4.9-3.4-7.39c-0.26-0.59-0.23-1.31-0.33-1.91c2.04,2.31,4.07,4.62,6.1,6.92
			C280.26-8.57,279.47-7.78,278.68-6.99z"/>
		<path d="M388.04,137.14c-0.33-0.16-0.8-0.22-0.98-0.48c-4.91-7.28-12.35-10.4-20.41-12.59c-4.11-1.11-8.18-2.38-12.19-3.79
			c-7.08-2.48-10.28-7.84-10.43-15.1c-0.14-6.53,3.17-11.13,8.7-14.27c1.23-0.7,2.56-1.21,3.51-1.65c-1.47,1.76-3.45,3.51-4.66,5.69
			c-2.3,4.16-1.36,8.29,1.29,12.01c4.24,5.94,10.51,8.58,17.3,10.25c2.06,0.51,4.19,0.73,6.29,1.1c7.58,1.36,13.21,5.7,17.76,11.68
			c0.16,0.2,0.14,0.54,0.21,0.81C392.29,132.92,390.16,135.03,388.04,137.14z"/>
		<path d="M273.27-1.47c0.52-0.01,1.11-0.2,1.54-0.01c9.18,3.99,13.47,11.78,12.44,22.4c-0.35,3.58-1.35,7.11-2.06,10.65
			c-0.06,0.31-0.23,0.59-0.24,0.61c-0.24-2.76-0.12-5.8-0.82-8.64c-2.02-8.24-7.16-14.01-14.92-17.46
			c-0.81-0.36-1.57-0.85-2.35-1.27C269,2.72,271.13,0.62,273.27-1.47z"/>
		<path d="M256.45,97.1c0.08-2.52,0.52-5.1,0.14-7.56c-0.63-4.09-3.76-6.59-6.75-9.1c-3.22-2.7-6.5-5.35-9.49-8.3
			c-3.88-3.83-5.57-8.82-6.36-14.09c-0.65-4.3-0.71-8.63,0.25-12.91c2.1-9.4,8.35-14.49,17.44-16.25c3.93-0.76,8.01-0.75,12.01-1.09
			c0.02,0.14,0.04,0.28,0.07,0.42c-1.41,0.62-2.88,1.13-4.22,1.88c-7.42,4.16-12.2,10.43-13.74,18.77
			c-1.36,7.36,1.39,13.38,7.44,17.8c3.02,2.21,6.13,4.28,9.21,6.41c6.97,4.82,9.04,11.72,8.04,19.72
			c-0.61,4.85-1.69,9.64-2.58,14.46c-0.06,0.31-0.26,0.58-0.4,0.87C263.82,104.46,260.14,100.78,256.45,97.1z"/>
		<path d="M330.34,48.21c-2.09,2.57-5.63,3.91-4.25,7.97c-10.57,1.97-19.62,6.14-24.72,16.66c0.52-5.15,4.34-13.54,9.55-17.83
			C316.46,50.45,323.25,49.67,330.34,48.21z"/>
		<path d="M327.11,55.33c0.47-0.98,0.78-2.08,1.43-2.91c0.96-1.22,2.15-2.25,3.25-3.36c2.3-2.31,4.6-4.61,6.89-6.92
			c1.18-1.19,2.49-1.29,3.96-0.58c1.07,0.51,2.17,0.94,3.48,1.5c-1.89,2.47-2.9,5.83-6.77,6.62c-1.07,0.22-2.41,1.07-2.86,2.01
			c-0.81,1.69-2.31,2.03-3.69,2.57c-1.65,0.65-3.42,0.98-5.13,1.44C327.49,55.58,327.3,55.45,327.11,55.33z"/>
		<path d="M338.69,74.1c1.41-1.89,2.64-3.54,3.9-5.24C343.84,71.27,341.98,73.87,338.69,74.1z"/>
		<path d="M359.76,55.2c-1.03,0.65-2.07,1.3-3.1,1.95c-0.14-0.23-0.28-0.45-0.42-0.68c1.04-0.61,2.07-1.23,3.11-1.84
			C359.49,54.82,359.62,55.01,359.76,55.2z"/>
	</g>
</g>
<ellipse transform="matrix(0.6158 -0.7879 0.7879 0.6158 -51.269 69.4722)" class="st2" cx="45.6" cy="87.31" rx="2.32" ry="2.2"/>
<rect x="12.91" y="57.72" transform="matrix(-0.6158 0.7879 -0.7879 -0.6158 70.2859 83.5313)" class="st2" width="3.74" height="2.37"/>
<path class="st3" d="M0.61,75.1c-2.96,3.78,2.79,13.21,12.84,21.06s20.59,11.15,23.54,7.37l13.83-17.69
	c-2.96,3.78-13.49,0.48-23.54-7.37S11.49,61.19,14.44,57.41L0.61,75.1z"/>
<ellipse transform="matrix(0.6158 -0.7879 0.7879 0.6158 -42.4169 53.5915)" class="st3" cx="33.74" cy="70.29" rx="8.69" ry="23.09"/>
<path class="st4" d="M33.13,101.15c3.19,1.11,6.14,1.6,9.17,1.79c7.36,0.44,14.04-2.79,25.6-10.29"/>
<path class="st4" d="M131.57,58.31c19.14,3.12,22.13,27.89,5.73,48.61c0,0,1.39,15.5,9.98,25.42"/>
<path class="st4" d="M104.86,39.43c1.54-2.42,2.46-13.52-4.74-15.54c-7.19-2.02-22.31-4.49-37.77,8.93"/>
<ellipse transform="matrix(0.5361 -0.8441 0.8441 0.5361 17.9672 146.4383)" class="st2" cx="142.23" cy="56.87" rx="2.32" ry="2.2"/>
<rect x="106.91" y="30.42" transform="matrix(-0.5361 0.8441 -0.8441 -0.5361 193.7862 -43.2793)" class="st2" width="3.74" height="2.37"/>
<path class="st3" d="M96.27,49.11c-2.57,4.05,4.07,12.88,14.83,19.71s21.57,9.09,24.15,5.04l12.04-18.96
	c-2.57,4.05-13.38,1.79-24.15-5.04s-17.4-15.66-14.83-19.71L96.27,49.11z"/>
<ellipse transform="matrix(0.5361 -0.8441 0.8441 0.5361 25.0572 127.8145)" class="st3" cx="128.83" cy="41.11" rx="8.69" ry="23.09"/>
<path class="st2" d="M69.66,20.89c0.11,0.26,0.13,0.54,0.15,0.82c0.07,1.01,0.09,2.06-0.27,3c-0.45,1.17-1.43,2.04-2.38,2.86
	c-0.75,0.65-1.5,1.3-2.25,1.94c-0.64,0.55-1.28,1.11-2.05,1.45c-0.77,0.34-1.68,0.45-2.44,0.08c-0.16-0.08-0.31-0.18-0.42-0.32
	c-0.15-0.19-0.19-0.44-0.21-0.69c-0.14-1.56,0.47-3.09,1.28-4.43c0.8-1.34,1.81-2.55,2.58-3.91c0.61-1.06,1.42-3.1,2.91-2.98
	C67.46,18.79,69.31,20.05,69.66,20.89z"/>
<ellipse transform="matrix(0.9397 -0.342 0.342 0.9397 -4.5446 24.7476)" class="st2" cx="67.9" cy="25.26" rx="2.2" ry="2.32"/>
<rect x="25.61" y="35.17" transform="matrix(0.342 0.9397 -0.9397 0.342 52.243 -1.9022)" class="st2" width="3.74" height="2.37"/>
<path class="st3" d="M36.25,54.24c1.64,4.51,12.68,4.63,24.67,0.27s20.36-11.55,18.72-16.06l-7.68-21.1
	c1.64,4.51-6.74,11.7-18.72,16.06s-23.02,4.24-24.67-0.27L36.25,54.24z"/>
<ellipse transform="matrix(0.9397 -0.342 0.342 0.9397 -4.9551 18.3404)" class="st3" cx="49.53" cy="23.22" rx="23.09" ry="8.69"/>
<path class="st4" d="M10.67,68.14c-0.85-3.6-1.07-7.31-1.07-11.13c0-10.18,7.86-12.87,10.9-13.03c1.6-0.08,6.27,1.49,12.62,2.18"/>
<path class="st5" d="M89.65,116.6c-0.82,0-1.63-0.01-2.43-0.02c-4.28-0.05-10.76-0.11-15.15-4.03c-3.96-3.54-5.54-9.69-4.31-16.89
	c0.76-4.45,2.36-7.47,4.89-9.22c0.94-0.66,2.24-0.42,2.9,0.52c0.65,0.94,0.42,2.24-0.52,2.9c-1.57,1.09-2.6,3.21-3.16,6.5
	c-0.46,2.72-1.1,9.45,2.98,13.09c2.98,2.66,7.57,2.92,12.42,2.97c4.77,0.05,10.18,0.11,14.67-1.88c1.05-0.46,2.28,0.01,2.74,1.06
	s-0.01,2.28-1.06,2.74C99.12,116.34,94.21,116.6,89.65,116.6z"/>
<ellipse transform="matrix(0.1095 -0.994 0.994 0.1095 15.2078 166.4673)" class="st2" cx="100.51" cy="74.75" rx="2.32" ry="2.2"/>
<rect x="57.49" y="65.61" transform="matrix(-0.1095 0.994 -0.994 -0.1095 132.2514 15.1049)" class="st2" width="3.74" height="2.37"/>
<path class="st3" d="M53.75,89.67c-0.53,4.77,9.32,9.77,22,11.16s23.37-1.34,23.9-6.11l2.46-22.32c-0.53,4.77-11.23,7.5-23.9,6.11
	s-22.52-6.4-22-11.16L53.75,89.67z"/>
<ellipse transform="matrix(0.1095 -0.994 0.994 0.1095 2.9485 139.3507)" class="st3" cx="79.25" cy="68.03" rx="8.69" ry="23.09"/>
<path class="st2" d="M96.44,112.57c-0.26,0.62-0.27,1.31-0.26,1.99c0,0.34,0,0.68,0.01,1.02c0,0.25,0,0.51,0.1,0.74
	c0.31,0.75,1.32,0.81,2.12,0.81c1.17,0.01,2.33,0.16,3.5,0.12s2.37-0.3,3.29-1c0.93-0.71,1.51-1.94,1.2-3.07
	c-0.27-0.98-1.16-1.7-2.13-2.03s-2.01-0.32-3.03-0.28C99.82,110.93,97.12,111,96.44,112.57z"/>
<path class="st6" d="M110.32,128.39c0,0,6.14-2.14,14.03,10.23"/>
<ellipse transform="matrix(0.8432 -0.5376 0.5376 0.8432 -29.2897 86.0202)" class="st2" cx="132.83" cy="93.23" rx="2.2" ry="2.32"/>
<rect x="93.91" y="111.63" transform="matrix(0.5376 0.8432 -0.8432 0.5376 139.4223 -28.5922)" class="st2" width="3.74" height="2.37"/>
<path class="st3" d="M106.33,131.57c2.58,4.05,13.39,1.77,24.14-5.08c10.75-6.85,17.38-15.69,14.8-19.74l-12.07-18.94
	c2.58,4.05-4.04,12.88-14.8,19.74c-10.75,6.85-21.56,9.13-24.14,5.08L106.33,131.57z"/>
<ellipse transform="matrix(0.8432 -0.5376 0.5376 0.8432 -35.3365 75.7091)" class="st3" cx="112.13" cy="98.44" rx="23.09" ry="8.69"/>
</svg>
